<?xml version="1.0"?>
<svg version="1.1" xmlns="http://www.w3.org/2000/svg" width="400px" height="200px" style="border: dashed 2px #aaa"><path fill="#" d="M79.892,123.598c0.046,0.782-0.184,1.242-1.058,1.242l-3.726,0c-0.966,0-1.15-0.46-1.196-1.518l-0.644-18.676l-0.092,0l-7.82,19.366c-0.276,0.736-0.736,0.828-1.242,0.828l-1.61,0c-0.69,0-1.104-0.138-1.426-0.874l-8.694-19.32l-0.092,0l-0.414,19.044c0,1.012-0.414,1.15-1.242,1.15l-3.128,0c-0.874,0-1.242-0.322-1.196-1.196l1.15-29.394c0.046-0.966,0.368-1.242,1.104-1.242l2.714,0c0.92,0,1.242,0.322,1.564,1.012l10.626,22.724l0.092,0l9.706-22.724c0.276-0.69,0.644-1.012,1.472-1.012l2.714,0c0.736,0,1.012,0.276,1.058,1.012z M108.941,103.174c0,0.138-0.046,0.276-0.092,0.46l-9.062,23.828c-2.07,5.474-4.646,7.406-10.166,7.406c-0.874,0-1.656-0.046-2.438-0.23c-0.506-0.092-0.69-0.368-0.69-0.782c0-0.138,0.046-0.23,0.046-0.414l0.322-2.392c0.092-0.598,0.322-0.828,0.828-0.828l0.276,0c0.552,0.046,1.104,0.138,1.564,0.138c2.852,0,4.048-1.012,4.968-3.174l0.874-2.07l-8.372-21.574c-0.046-0.138-0.092-0.23-0.092-0.368c0-0.368,0.276-0.644,0.69-0.644l4.416,0c0.644,0,0.966,0.322,1.15,0.782l5.106,15.226l4.83-14.95c0.23-0.736,0.598-1.058,1.38-1.058l3.726,0c0.46,0,0.736,0.276,0.736,0.644z M127.778,102.714c0,0.138,0,0.276-0.046,0.414l-0.506,3.266c-0.046,0.414-0.276,0.598-0.644,0.598l-0.184,0c-0.368-0.092-0.828-0.138-1.242-0.138c-1.564,0-3.266,0.828-4.416,2.208l0,14.628c0,0.736-0.322,1.15-1.104,1.15l-3.358,0c-0.736,0-1.104-0.368-1.104-1.15l0-14.352l0-5.658c0-0.92,0.46-1.15,1.15-1.15l2.944,0c0.736,0,1.15,0.23,1.15,0.874l0.046,1.472c1.426-1.794,2.99-2.944,5.566-2.944c0.368,0,0.874,0.092,1.288,0.184c0.322,0.092,0.46,0.23,0.46,0.598z M155.447,123.966c0,0.552-0.368,0.874-0.92,0.874l-2.208,0c-2.392,0-3.45-1.15-3.772-2.714l-0.092,0c-1.15,1.702-4.14,3.266-6.67,3.266c-6.486,0-9.43-5.336-9.43-11.316c0-7.958,4.784-12.144,9.936-12.144c2.438,0,4.738,1.104,5.888,2.668l0.092-1.242c0.046-0.506,0.414-0.828,0.966-0.828l3.22,0c0.598,0,0.966,0.322,0.966,1.012l0,15.962c0,0.644,0.092,1.104,0.276,1.334c0.138,0.138,0.322,0.184,0.552,0.184l0.368,0c0.552,0,0.828,0.184,0.828,0.782l0,2.162z M147.857,117.71l0-8.878c-0.92-1.334-2.806-2.346-4.554-2.346c-2.806,0-5.198,2.392-5.198,7.222c0,3.864,1.472,7.13,4.876,7.13c2.254,0,4.186-1.702,4.876-3.128z M194.685,124.288c0,0.414-0.414,0.552-0.874,0.552l-3.956,0c-0.828,0-1.38-0.23-1.84-0.966l-5.888-9.66l-0.506,0.46l0,6.394l0,2.622c0,0.782-0.322,1.15-1.058,1.15l-3.45,0c-0.69,0-1.058-0.414-1.058-1.104l0-30.176c0-0.736,0.276-1.012,0.966-1.104l3.358-0.46c0.138,0,0.23-0.046,0.368-0.046c0.552,0,0.874,0.276,0.874,1.058l0,7.728l0,10.718l0.092,0l6.026-8.28c0.368-0.506,0.644-0.644,1.242-0.644l4.094,0c0.368,0,0.598,0.184,0.598,0.46c0,0.138-0.046,0.322-0.184,0.506l-6.578,8.28l7.452,11.638c0.184,0.276,0.322,0.598,0.322,0.874z M221.158,123.92c0,0.69-0.138,0.92-0.736,0.92l-4.048,0c-0.644,0-0.782-0.184-0.782-0.92l0-12.788c0-2.484-0.69-4.324-3.45-4.324c-1.794,0-4.094,0.966-5.52,2.208l0,14.904c0,0.69-0.184,0.92-0.874,0.92l-3.956,0c-0.552,0-0.736-0.23-0.736-0.828l0-30.406c0-0.828,0.368-1.058,1.012-1.15l3.174-0.414c0.184-0.046,0.414-0.046,0.598-0.046c0.506,0,0.782,0.23,0.782,0.874l0,11.546c1.932-1.61,4.83-2.484,7.268-2.484c5.152,0,7.268,3.266,7.268,8.234l0,13.754z M251.357,123.966c0,0.552-0.368,0.874-0.92,0.874l-2.208,0c-2.392,0-3.45-1.15-3.772-2.714l-0.092,0c-1.15,1.702-4.14,3.266-6.67,3.266c-6.486,0-9.43-5.336-9.43-11.316c0-7.958,4.784-12.144,9.936-12.144c2.438,0,4.738,1.104,5.888,2.668l0.092-1.242c0.046-0.506,0.414-0.828,0.966-0.828l3.22,0c0.598,0,0.966,0.322,0.966,1.012l0,15.962c0,0.644,0.092,1.104,0.276,1.334c0.138,0.138,0.322,0.184,0.552,0.184l0.368,0c0.552,0,0.828,0.184,0.828,0.782l0,2.162z M243.767,117.71l0-8.878c-0.92-1.334-2.806-2.346-4.554-2.346c-2.806,0-5.198,2.392-5.198,7.222c0,3.864,1.472,7.13,4.876,7.13c2.254,0,4.186-1.702,4.876-3.128z M271.988,123.46c0,0.46-0.23,0.69-0.69,0.874c-1.426,0.598-3.312,1.058-5.152,1.058c-2.346,0-4.37-0.598-5.52-1.932c-1.426-1.61-1.472-3.496-1.472-6.854l0-10.258l-2.162,0c-0.874,0-1.012-0.184-1.012-1.15l0-1.748c0-0.552,0.276-0.92,0.828-0.92l2.346,0l0-5.014c0-0.782,0.414-1.012,1.15-1.104l3.312-0.414l0.23,0c0.598,0,0.874,0.322,0.874,1.012l0,5.52l5.198,0c0.552,0,0.874,0.184,0.874,0.782l0,2.162c0,0.552-0.368,0.874-0.92,0.874l-5.152,0l0,10.534c0,1.38,0.092,2.392,0.598,3.128c0.414,0.598,1.058,0.966,2.162,0.966c1.15,0,2.116-0.276,2.944-0.552c0.184-0.046,0.322-0.092,0.46-0.092c0.322,0,0.506,0.184,0.598,0.552l0.46,2.3c0.046,0.138,0.046,0.184,0.046,0.276z M299.151,113.662c0,6.624-4.048,11.73-11.224,11.73c-7.498,0-10.948-5.06-10.948-11.776c0-6.624,4.048-11.684,11.224-11.684c7.498,0,10.948,4.968,10.948,11.73z M293.401,113.662c0-3.772-1.196-7.36-5.244-7.36c-4.094,0-5.428,3.542-5.428,7.222c0,3.772,1.15,7.498,5.244,7.498c4.048,0,5.428-3.588,5.428-7.36z M327.188,113.662c0,6.624-4.048,11.73-11.224,11.73c-7.498,0-10.948-5.06-10.948-11.776c0-6.624,4.048-11.684,11.224-11.684c7.498,0,10.948,4.968,10.948,11.73z M321.438,113.662c0-3.772-1.196-7.36-5.244-7.36c-4.094,0-5.428,3.542-5.428,7.222c0,3.772,1.15,7.498,5.244,7.498c4.048,0,5.428-3.588,5.428-7.36z M354.397,123.644c0,0.782-0.276,1.196-1.104,1.196l-3.312,0c-0.828,0-1.104-0.414-1.104-1.196l0-12.512c0-2.53-0.69-4.324-3.496-4.324c-1.794,0-4.002,0.966-5.428,2.208l0,14.674c0,0.782-0.322,1.15-1.104,1.15l-3.358,0c-0.69,0-1.104-0.368-1.104-1.104l0-20.056c0-0.736,0.322-1.15,1.15-1.15l2.99,0c0.644,0,1.058,0.184,1.104,0.874l0.046,1.196c2.116-1.702,4.784-2.668,7.452-2.668c5.152,0,7.268,3.22,7.268,8.234l0,13.478z"/><path fill="#" d=""/></svg>


